<svg xmlns="http://www.w3.org/2000/svg" width="400" height="400"><g fill-rule="evenodd"><path d="M195.72 124.782c-75.426.177-92.978.316-93.4.738-.533.532-1.407 108.15-.903 111.169.429 2.57.178 2.537 18.906 2.491 20.408-.05 18.303-.682 22.744 6.82 3.497 5.908 15.699 25.012 16.577 25.955 1.818 1.951 1.835 1.93 11.766-14.555 4.771-7.92 9.13-15.004 9.685-15.742 2.041-2.712-1.855-2.531 59.435-2.766 50.133-.192 55.601-.274 56.261-.852.969-.849 1.563-111.403.605-112.714-.451-.618-1.145-.729-4.663-.744-2.273-.011-45.929.079-97.013.2m86.151 4.379c9.438.344 10.1.527 10.923 3.021.342 1.036.484 14.457.536 50.645l.07 49.236-1.264 1.131c-1.931 1.727-2.896 1.75-59.664 1.438l-52.127-.286-1.273 1.365c-.699.751-4.404 6.53-8.232 12.842C164.026 259.79 162.364 262 160.729 262c-1.607 0-4.802-4.196-13.504-17.734-2.946-4.584-5.732-8.574-6.191-8.867-.631-.404-4.582-.62-16.234-.889-16.621-.383-16.69-.393-17.878-2.622-.638-1.197-.688-4.802-.704-50.778l-.018-49.49 1.067-1.068c.586-.587 1.756-1.2 2.6-1.364 2.048-.396 161.199-.421 172.004-.027M191 157.598c-65.977.206-66.2.212-66.2 1.796 0 1.745-1.671 1.702 74.93 1.897 81.716.208 75.975.374 75.333-2.184-.419-1.669-1.931-1.917-11.023-1.809-4.532.053-37.4.188-73.04.3m-12.4 24.792c-53.428.214-53.8.227-53.8 1.804 0 1.725-1.302 1.689 69.6 1.946 80.746.292 80.4.301 80.4-1.959 0-2.26 3.724-2.19-96.2-1.791m-52.9 23.698c-.998.482-1.212 1.955-.383 2.643.693.576 74.581.731 75.154.158.674-.674.181-2.243-.871-2.773-1.337-.674-72.505-.701-73.9-.028" fill="#369595"/><path d="M0 200v200h400V0H0v200m313.44-98.45c2.449 1.806 16.822 16.544 17.143 17.579.629 2.023-.208 3.032-13.988 16.871-7.558 7.59-13.979 14.34-14.268 15-.421.959-.567 9.933-.727 44.6-.215 46.653-.105 44.464-2.296 45.9-.996.653-3.999.714-44.286.9-42.173.195-43.259.219-44.902 1-1.173.558-9.996 9.066-29.142 28.103-27.941 27.782-28.429 28.218-30.431 27.155-3.081-1.636-81.103-80.574-81.103-82.055 0-1.336.599-2.038 8.58-10.046 11.313-11.353 10.787-11.128 15.615-6.697l2.9 2.661.732-.905c.699-.863.733-2.653.733-38.473 0-40.252-.055-39.123 1.987-40.943.89-.794 1.606-.802 94.155-1l93.258-.2 2-1.072c1.327-.711 4.828-3.922 10.4-9.541 10.748-10.836 10.844-10.899 13.64-8.837m-203.217 32.139c-.959 1.368-.943 77.879.016 81.138.577 1.958 1.236 2.775 6.672 8.262 7.669 7.739 7.022 7.436 16.489 7.729 10.364.32 9.293-.389 16.587 10.982 5.246 8.179 6.527 9.8 7.746 9.8 1.071 0 8.043-6.901 14.144-14 3.342-3.889 5.864-6.416 7.654-7.669 3.105-2.174 15.269-14.292 15.269-15.21 0-1.475-.39-1.493-35.425-1.608-39.173-.129-36.71.092-38.266-3.425-1.404-3.174.161-6.337 3.592-7.261 1.161-.313 12.563-.411 38.772-.335l37.127.108 1.684.9c3.019 1.613 3.252 1.496 9.584-4.781 3.151-3.124 5.835-6.013 5.964-6.419.62-1.953 2.498-1.873-46.773-1.99-44.563-.106-46.109-.135-47.613-.881-3.782-1.877-3.832-7.298-.087-9.349 1.145-.627 5.331-.696 53.841-.88l52.6-.2 2-1.064c2.214-1.178 11-9.825 11-10.826 0-1.499.26-1.492-59.432-1.602-55.786-.103-58.434-.141-59.85-.845-3.685-1.833-3.897-6.967-.378-9.155l1.46-.908 65-.2 65-.2 2-1.068c2.329-1.244 18.6-17.375 18.6-18.44 0-1.492-.004-1.492-82.951-1.492h-81.404l-.622.889M281.8 170.827c-7.319 7.319-7.125 6.984-5.258 9.072 5.142 5.751 2.293 9.565-7.542 10.095-7.132.385-5.472-.876-26.5 20.122-19.118 19.091-19.51 19.529-18.126 20.27 1.599.856 64.186.543 64.971-.325 1.052-1.163.815-64.073-.245-65.133-.668-.667-1.014-.387-7.3 5.899" fill="#ffffff" fill-opacity="0"/><path d="M309.4 101.16c-.66.417-4.98 4.569-9.6 9.227-5.572 5.619-9.073 8.83-10.4 9.541l-2 1.072-93.258.2c-92.549.198-93.265.206-94.155 1-2.042 1.82-1.987.691-1.987 40.943 0 35.82-.034 37.61-.733 38.473l-.732.905-2.9-2.661c-4.828-4.431-4.302-4.656-15.615 6.697-7.981 8.008-8.58 8.71-8.58 10.046 0 1.481 78.022 80.419 81.103 82.055 2.002 1.063 2.49.627 30.431-27.155 19.146-19.037 27.969-27.545 29.142-28.103 1.643-.781 2.729-.805 44.902-1 40.287-.186 43.29-.247 44.286-.9 2.191-1.436 2.081.753 2.296-45.9.16-34.667.306-43.641.727-44.6.289-.66 6.71-7.41 14.268-15 13.78-13.839 14.617-14.848 13.988-16.871-.321-1.035-14.694-15.773-17.143-17.579-1.832-1.351-2.426-1.408-4.04-.39m-10.2 21.186c2.002 1.463 2.033 1.723 1.845 15.454-.096 7.04-.356 13.88-.576 15.2-.249 1.487-.414 18.117-.435 43.72-.037 45.466.094 43.139-2.482 44.037-.899.313-13.477.443-42.947.443-34.935 0-42.316.097-45.64.598-2.682.404-7.109.598-13.685.6-7.55.001-9.961.127-10.8.562-.777.404-3.657 4.844-10.28 15.85-13.934 23.156-12.334 22.788-23.434 5.39-3.789-5.94-7.88-12.6-9.09-14.8-3.007-5.467-4.002-6.994-4.582-7.033-.272-.018-8.421-.063-18.11-.1-19.401-.074-19.182-.046-20.29-2.588-.708-1.622-.907-28.263-.241-32.133.376-2.181.564-13.303.727-42.837l.22-39.891 1.109-1.109 1.109-1.109 93.891-.246c62.771-.164 94.62-.384 96.091-.665 2.911-.554 6.348-.257 7.6.657m-188.716 9.306c-.838.241-1.455.746-1.7 1.39-.678 1.784-.475 79.558.221 84.358.319 2.2.583 5.913.587 8.251.01 5.558-.374 5.29 7.996 5.58 3.666.127 6.894.373 7.174.545.279.173 4.17.429 8.647.569l8.139.255 1.254 1.2c.69.66 3.627 4.89 6.527 9.4 5.499 8.554 10.126 14.2 11.638 14.2.614 0 1.457-1.023 3.294-4 10.252-16.609 13.577-21.011 16.448-21.779 2.15-.574 39.132-.317 42.691.297 3.332.575 63.464.626 65.519.056 1.036-.288 1.64-.74 1.9-1.424.559-1.47.488-65.887-.075-67.95-.248-.911-.545-7.54-.69-15.389l-.254-13.789-1-.505c-.571-.288-2.474-.508-4.435-.511-1.889-.003-5.219-.275-7.4-.604-4.709-.709-164.042-.854-166.481-.15m163.942 1.562c.426.228.774.713.774 1.078 0 1.065-16.271 17.196-18.6 18.44l-2 1.068-65 .2-65 .2-1.46.908c-3.519 2.188-3.307 7.322.378 9.155 1.416.704 4.064.742 59.85.845 59.692.11 59.432.103 59.432 1.602 0 1.001-8.786 9.648-11 10.826l-2 1.064-52.6.2c-48.51.184-52.696.253-53.841.88-3.745 2.051-3.695 7.472.087 9.349 1.504.746 3.05.775 47.613.881 49.271.117 47.393.037 46.773 1.99-.129.406-2.813 3.295-5.964 6.419-6.332 6.277-6.565 6.394-9.584 4.781l-1.684-.9-37.127-.108c-26.209-.076-37.611.022-38.772.335-3.431.924-4.996 4.087-3.592 7.261 1.556 3.517-.907 3.296 38.266 3.425 35.035.115 35.425.133 35.425 1.608 0 .918-12.164 13.036-15.269 15.21-1.79 1.253-4.312 3.78-7.654 7.669-6.101 7.099-13.073 14-14.144 14-1.219 0-2.5-1.621-7.746-9.8-7.294-11.371-6.223-10.662-16.587-10.982-9.467-.293-8.82.01-16.489-7.729-5.436-5.487-6.095-6.304-6.672-8.262-.959-3.259-.975-79.77-.016-81.138l.622-.889h81.404c55.349 0 81.651.133 82.177.414m1.337 21.814c4.268 2.217 3.682 8.038-.946 9.409-1.777.527-28.371.224-31.817-.362-1.548-.263-22.804-.419-59.874-.441-34.759-.021-57.864-.182-58.462-.409-3.339-1.27-3.661-5.421-.552-7.121 1.209-.661 5.293-.719 66.888-.953 42.811-.162 66.364-.393 67.8-.665 4.015-.762 15.138-.406 16.963.542m14.144 42.447c.099 29.3.054 31.905-.562 32.586-.785.868-63.372 1.181-64.971.325-1.384-.741-.992-1.179 18.126-20.27 21.028-20.998 19.368-19.737 26.5-20.122 9.835-.53 12.684-4.344 7.542-10.095-1.867-2.088-2.061-1.753 5.258-9.072 6.286-6.286 6.632-6.566 7.3-5.899.653.654.707 2.826.807 32.547M273.4 179.721c3.41 1.537 4.806 3.947 3.619 6.243-.978 1.89-2.267 2.302-8.019 2.562-2.86.129-6.229.432-7.488.673-2.886.551-39.846.281-43.312-.317-1.551-.268-18.432-.426-47.726-.448-32.535-.024-45.573-.16-46.2-.481-3.01-1.539-3.099-5.443-.162-7.049 1.205-.658 4.734-.72 54.488-.955 32.983-.155 54.036-.404 55.4-.654 4.24-.779 37.525-.419 39.4.426m-71.69 24.618c4.602 2.861 2.996 7.965-2.442 7.761-1.467-.055-18.598-.191-38.068-.301-19.47-.11-35.82-.297-36.334-.416-2.47-.57-3.751-4.208-2.166-6.154 1.656-2.032 1.157-2.009 40.7-1.916l36.8.087 1.51.939" fill="#dcdcdc"/><path d="M291.6 121.689c-1.471.281-33.32.501-96.091.665l-93.891.246-1.109 1.109-1.109 1.109-.22 39.891c-.163 29.534-.351 40.656-.727 42.837-.666 3.87-.467 30.511.241 32.133 1.108 2.542.889 2.514 20.29 2.588 9.689.037 17.838.082 18.11.1.58.039 1.575 1.566 4.582 7.033 1.21 2.2 5.301 8.86 9.09 14.8 11.1 17.398 9.5 17.766 23.434-5.39 6.623-11.006 9.503-15.446 10.28-15.85.839-.435 3.25-.561 10.8-.562 6.576-.002 11.003-.196 13.685-.6 3.324-.501 10.705-.598 45.64-.598 29.47 0 42.048-.13 42.947-.443 2.576-.898 2.445 1.429 2.482-44.037.021-25.603.186-42.233.435-43.72.656-3.924.855-27.805.241-28.961-1.237-2.333-4.62-3.205-9.11-2.35m6.137 1.555c1.966.896 2.069 1.61 1.98 13.716-.046 6.182-.226 31.44-.4 56.129L299 237.978l-.911.911-.911.911-43.289.282c-58.726.383-68.905.64-70.489 1.785-.777.562-4.37 6.126-10.2 15.798-11.133 18.47-11.278 18.647-13.709 16.735-1.172-.922-12.873-19.086-17.032-26.44-1.543-2.728-3.34-5.472-3.994-6.098l-1.188-1.138-17.597.055-17.597.054-1.141-.982-1.142-.982.088-16.334c.048-8.984.228-34.576.4-56.871l.312-40.535.944-.765c.924-.747 2.988-.765 92.4-.804 50.301-.021 92.446-.176 93.656-.343 3.449-.477 9.064-.462 10.137.027m-188.455 7.571c-2.18.884-2.131-.275-1.913 44.51.227 46.796.455 55.072 1.544 56.162.756.756.848.763 23.087 1.632 10.928.426 9.042-1.052 19.418 15.215 1.31 2.054 3.244 4.754 4.298 6 1.054 1.246 2.314 2.856 2.8 3.576 2.277 3.374 2.999 2.721 10.484-9.496 7.345-11.987 8.666-13.856 10.6-14.992 1.585-.93-.877-.916 74.345-.424 39.815.261 37.202.433 38.063-2.496.472-1.604.271-55.753-.308-83.388-.36-17.137.265-15.573-6.413-16.045-6.697-.474-174.865-.716-176.005-.254m167.683.987c2.181.329 5.511.601 7.4.604 1.961.003 3.864.223 4.435.511l1 .505.254 13.789c.145 7.849.442 14.478.69 15.389.563 2.063.634 66.48.075 67.95-.26.684-.864 1.136-1.9 1.424-2.055.57-62.187.519-65.519-.056-3.559-.614-40.541-.871-42.691-.297-2.871.768-6.196 5.17-16.448 21.779-1.837 2.977-2.68 4-3.294 4-1.512 0-6.139-5.646-11.638-14.2-2.9-4.51-5.837-8.74-6.527-9.4l-1.254-1.2-8.139-.255c-4.477-.14-8.368-.396-8.647-.569-.28-.172-3.508-.418-7.174-.545-8.37-.29-7.986-.022-7.996-5.58-.004-2.338-.268-6.051-.587-8.251-.696-4.8-.899-82.574-.221-84.358.245-.644.862-1.149 1.7-1.39 2.439-.704 161.772-.559 166.481.15M258.8 154.486c-1.436.272-24.989.503-67.8.665-61.595.234-65.679.292-66.888.953-3.109 1.7-2.787 5.851.552 7.121.598.227 23.703.388 58.462.409 37.07.022 58.326.178 59.874.441 3.446.586 30.04.889 31.817.362 4.628-1.371 5.214-7.192.946-9.409-1.825-.948-12.948-1.304-16.963-.542m16.672 2.155c2.228 1.661 2.228 4.258-.001 5.918-1.098.818-1.475.839-14 .754-7.079-.048-40.591-.228-74.471-.4-53.723-.273-61.717-.39-62.515-.913-1.812-1.188-1.643-3.987.301-4.993 1.035-.535 8.707-.612 64.494-.647 34.826-.021 64.31-.181 65.52-.354 5.058-.723 19.442-.282 20.672.635M234 179.295c-1.364.25-22.417.499-55.4.654-49.754.235-53.283.297-54.488.955-2.937 1.606-2.848 5.51.162 7.049.627.321 13.665.457 46.2.481 29.294.022 46.175.18 47.726.448 3.466.598 40.426.868 43.312.317 1.259-.241 4.628-.544 7.488-.673 5.752-.26 7.041-.672 8.019-2.562 1.187-2.296-.209-4.706-3.619-6.243-1.875-.845-35.16-1.205-39.4-.426m39.896 2.013c2.687 1.469 3.181 3.968 1.059 5.358-1.621 1.063-12.308 1.529-32.955 1.437-87.265-.386-116.613-.712-117.515-1.303-1.812-1.188-1.643-3.987.301-4.993 1.031-.533 7.395-.612 52.094-.647 28.006-.021 51.91-.179 53.12-.35 4.941-.699 42.486-.272 43.896.498M125 203.798c-3.045 1.088-4.035 4.168-2.034 6.327 1.41 1.522-.062 1.457 38.234 1.674 19.47.11 36.601.246 38.068.301 5.438.204 7.044-4.9 2.442-7.761l-1.51-.939-36.8-.087c-31.046-.073-37.05.003-38.4.485m76.574 1.977c1.499 1.436 1.596 2.938.271 4.183l-.956.898-36.86-.041c-20.273-.023-37.381-.145-38.017-.273-3.211-.642-3.832-4.129-1.012-5.684.57-.314 11.508-.414 38.074-.349l37.274.091 1.226 1.175" fill="#9bcbca"/><path d="M287.6 123.217c-1.21.167-43.355.322-93.656.343-89.412.039-91.476.057-92.4.804l-.944.765-.312 40.535c-.172 22.295-.352 47.887-.4 56.871l-.088 16.334 1.142.982 1.141.982 17.597-.054 17.597-.055 1.188 1.138c.654.626 2.451 3.37 3.994 6.098 4.159 7.354 15.86 25.518 17.032 26.44 2.431 1.912 2.576 1.735 13.709-16.735 5.83-9.672 9.423-15.236 10.2-15.798 1.584-1.145 11.763-1.402 70.489-1.785l43.289-.282.911-.911.911-.911.317-44.889c.174-24.689.354-49.947.4-56.129.089-12.106-.014-12.82-1.98-13.716-1.073-.489-6.688-.504-10.137-.027m9.796 2.109c.958 1.311.364 111.865-.605 112.714-.66.578-6.128.66-56.261.852-61.29.235-57.394.054-59.435 2.766-.555.738-4.914 7.822-9.685 15.742-9.931 16.485-9.948 16.506-11.766 14.555-.878-.943-13.08-20.047-16.577-25.955-4.441-7.502-2.336-6.87-22.744-6.82-18.728.046-18.477.079-18.906-2.491-.504-3.019.37-110.637.903-111.169.43-.43 144.824-1.141 190.413-.938 3.518.015 4.212.126 4.663.744m-187.529 3.862c-.844.164-2.014.777-2.6 1.364l-1.067 1.068.018 49.49c.016 45.976.066 49.581.704 50.778 1.188 2.229 1.257 2.239 17.878 2.622 11.652.269 15.603.485 16.234.889.459.293 3.245 4.283 6.191 8.867C155.927 257.804 159.122 262 160.729 262c1.635 0 3.297-2.21 10.111-13.447 3.828-6.312 7.533-12.091 8.232-12.842l1.273-1.365 52.127.286c56.768.312 57.733.289 59.664-1.438l1.264-1.131-.07-49.236c-.052-36.188-.194-49.609-.536-50.645-.823-2.494-1.485-2.677-10.923-3.021-10.805-.394-169.956-.369-172.004.027m175.42 1.881c6.678.472 6.053-1.092 6.413 16.045.579 27.635.78 81.784.308 83.388-.861 2.929 1.752 2.757-38.063 2.496-75.222-.492-72.76-.506-74.345.424-1.934 1.136-3.255 3.005-10.6 14.992-7.485 12.217-8.207 12.87-10.484 9.496-.486-.72-1.746-2.33-2.8-3.576-1.054-1.246-2.988-3.946-4.298-6-10.376-16.267-8.49-14.789-19.418-15.215-22.239-.869-22.331-.876-23.087-1.632-1.089-1.09-1.317-9.366-1.544-56.162-.218-44.785-.267-43.626 1.913-44.51 1.14-.462 169.308-.22 176.005.254M254.8 156.006c-1.21.173-30.694.333-65.52.354-55.787.035-63.459.112-64.494.647-1.944 1.006-2.113 3.805-.301 4.993.798.523 8.792.64 62.515.913 33.88.172 67.392.352 74.471.4 12.525.085 12.902.064 14-.754 2.229-1.66 2.229-4.257.001-5.918-1.23-.917-15.614-1.358-20.672-.635m18.743 1.634c1.656.577 2.142 2.2.948 3.167-.983.796-148.195.693-149.191-.104-.733-.587-.61-2.164.2-2.56.385-.189 29.86-.434 65.5-.545 35.64-.112 68.508-.247 73.04-.3 5.217-.062 8.704.063 9.503.342M230 180.81c-1.21.171-25.114.329-53.12.35-44.699.035-51.063.114-52.094.647-1.944 1.006-2.113 3.805-.301 4.993.902.591 30.25.917 117.515 1.303 20.647.092 31.334-.374 32.955-1.437 2.122-1.39 1.628-3.889-1.059-5.358-1.41-.77-38.955-1.197-43.896-.498m43.718 2.099c2.827 1.853 1.059 2.911-5.383 3.222-8.582.414-142.458-.179-143.035-.634-.733-.579-.609-2.158.2-2.554.646-.317 77.645-.775 126.318-.753 19.247.009 20.9.064 21.9.719M125 204.858c-2.82 1.555-2.199 5.042 1.012 5.684.636.128 17.744.25 38.017.273l36.86.041.956-.898c1.325-1.245 1.228-2.747-.271-4.183l-1.226-1.175-37.274-.091c-26.566-.065-37.504.035-38.074.349m74.6 1.258c1.052.53 1.545 2.099.871 2.773-.573.573-74.461.418-75.154-.158-.829-.688-.615-2.161.383-2.643 1.395-.673 72.563-.646 73.9.028" fill="#84bcb4"/></g></svg>